<?xml version="1.0" encoding="UTF-8"?>
<svg id="Layer_1" xmlns="http://www.w3.org/2000/svg" version="1.1" viewBox="0 0 2136.7 211.7">
  <!-- Generator: Adobe Illustrator 30.6.0, SVG Export Plug-In . SVG Version: 2.1.4 Build 109)  -->
  <path d="M0,0h18.6v43.5H0V0Z"/>
  <path d="M18.6,0h18.6v43.5h-18.6V0Z"/>
  <path d="M37.3,0h18.6v43.5h-18.6V0Z"/>
  <path d="M55.9,0h18.6v43.5h-18.6V0Z"/>
  <path d="M74.5,0h18.6v43.5h-18.6V0Z"/>
  <path d="M93.1,0h18.6v43.5h-18.6V0Z"/>
  <path d="M111.8,0h18.6v43.5h-18.6V0Z"/>
  <path d="M130.4,0h18.6v43.5h-18.6V0Z"/>
  <path d="M159.6,43.5v-22.9h-11.7v-2.5h14.2v25.4h-2.5ZM154.7,43.5v-18.1h-6.9v-2.5h9.3v20.5h-2.5Z"/>
  <path d="M167.7,0h18.6v43.5h-18.6V0Z"/>
  <path d="M186.3,0h18.6v43.5h-18.6V0Z"/>
  <path d="M215.4,43.5v-22.9h-11.7v-2.5h14.2v25.4h-2.5ZM210.6,43.5v-18.1h-6.9v-2.5h9.3v20.5h-2.5Z"/>
  <path d="M260.8,0h18.6v43.5h-18.6V0Z"/>
  <path d="M279.4,0h18.6v43.5h-18.6V0Z"/>
  <path d="M308.6,43.5v-22.9h-11.7v-2.5h14.2v25.4h-2.5ZM303.7,43.5v-18.1h-6.9v-2.5h9.3v20.5h-2.5Z"/>
  <path d="M316.7,0h18.6v43.5h-18.6V0Z"/>
  <path d="M335.3,0h18.6v43.5h-18.6V0Z"/>
  <path d="M354,0h18.6v43.5h-18.6V0Z"/>
  <path d="M372.6,0h18.6v43.5h-18.6V0Z"/>
  <path d="M391.2,0h18.6v43.5h-18.6V0Z"/>
  <path d="M409.8,0h18.6v43.5h-18.6V0Z"/>
  <path d="M428.5,0h18.6v43.5h-18.6V0Z"/>
  <path d="M457.6,43.5v-22.9h-11.7v-2.5h14.2v25.4h-2.5ZM452.8,43.5v-18.1h-6.9v-2.5h9.3v20.5h-2.5Z"/>
  <path d="M540.3,0h18.6v43.5h-18.6V0Z"/>
  <path d="M558.9,0h18.6v43.5h-18.6V0Z"/>
  <path d="M577.5,0h18.6v43.5h-18.6V0Z"/>
  <path d="M596.1,0h18.6v43.5h-18.6V0Z"/>
  <path d="M614.8,0h18.6v43.5h-18.6V0Z"/>
  <path d="M633.4,0h18.6v43.5h-18.6V0Z"/>
  <path d="M652,0h18.6v43.5h-18.6V0Z"/>
  <path d="M681.2,43.5v-22.9h-11.7v-2.5h14.2v25.4h-2.5ZM676.3,43.5v-18.1h-6.9v-2.5h9.3v20.5h-2.5Z"/>
  <path d="M707.9,0h18.6v43.5h-18.6V0Z"/>
  <path d="M726.5,0h18.6v43.5h-18.6V0Z"/>
  <path d="M745.2,0h18.6v43.5h-18.6V0Z"/>
  <path d="M763.8,0h18.6v43.5h-18.6V0Z"/>
  <path d="M782.4,0h18.6v43.5h-18.6V0Z"/>
  <path d="M801.1,0h18.6v43.5h-18.6V0Z"/>
  <path d="M830.2,43.5v-22.9h-11.7v-2.5h14.2v25.4h-2.5ZM825.3,43.5v-18.1h-6.9v-2.5h9.3v20.5h-2.5Z"/>
  <path d="M856.9,0h18.6v43.5h-18.6V0Z"/>
  <path d="M875.6,0h18.6v43.5h-18.6V0Z"/>
  <path d="M904.7,43.5v-22.9h-11.7v-2.5h14.2v25.4h-2.5ZM899.9,43.5v-18.1h-6.9v-2.5h9.3v20.5h-2.5Z"/>
  <path d="M1006,0h18.6v43.5h-18.6V0Z"/>
  <path d="M1024.6,0h18.6v43.5h-18.6V0Z"/>
  <path d="M1043.2,0h18.6v43.5h-18.6V0Z"/>
  <path d="M1061.9,0h18.6v43.5h-18.6V0Z"/>
  <path d="M1080.5,0h18.6v43.5h-18.6V0Z"/>
  <path d="M1099.1,0h18.6v43.5h-18.6V0Z"/>
  <path d="M1117.8,0h18.6v43.5h-18.6V0Z"/>
  <path d="M1146.9,43.5v-22.9h-11.7v-2.5h14.2v25.4h-2.5ZM1142,43.5v-18.1h-6.9v-2.5h9.3v20.5h-2.5Z"/>
  <path d="M1173.6,0h18.6v43.5h-18.6V0Z"/>
  <path d="M1192.3,0h18.6v43.5h-18.6V0Z"/>
  <path d="M1210.9,0h18.6v43.5h-18.6V0Z"/>
  <path d="M1229.5,0h18.6v43.5h-18.6V0Z"/>
  <path d="M1248.2,0h18.6v43.5h-18.6V0Z"/>
  <path d="M1277.3,43.5v-22.9h-11.7v-2.5h14.2v25.4h-2.5ZM1272.4,43.5v-18.1h-6.9v-2.5h9.3v20.5h-2.5Z"/>
  <path d="M1304.1,0h18.6v43.5h-18.6V0Z"/>
  <path d="M1322.7,0h18.6v43.5h-18.6V0Z"/>
  <path d="M1341.3,0h18.6v43.5h-18.6V0Z"/>
  <path d="M1359.9,0h18.6v43.5h-18.6V0Z"/>
  <path d="M1378.6,0h18.6v43.5h-18.6V0Z"/>
  <path d="M1397.2,0h18.6v43.5h-18.6V0Z"/>
  <path d="M1415.8,0h18.6v43.5h-18.6V0Z"/>
  <path d="M1434.5,0h18.6v43.5h-18.6V0Z"/>
  <path d="M1463.6,43.5v-22.9h-11.7v-2.5h14.2v25.4h-2.5ZM1458.7,43.5v-18.1h-6.9v-2.5h9.3v20.5h-2.5Z"/>
  <path d="M1490.3,0h18.6v43.5h-18.6V0Z"/>
  <path d="M1509,0h18.6v43.5h-18.6V0Z"/>
  <path d="M1527.6,0h18.6v43.5h-18.6V0Z"/>
  <path d="M1546.2,0h18.6v43.5h-18.6V0Z"/>
  <path d="M1564.9,0h18.6v43.5h-18.6V0Z"/>
  <path d="M1594,43.5v-22.9h-11.7v-2.5h14.2v25.4h-2.5ZM1589.1,43.5v-18.1h-6.9v-2.5h9.3v20.5h-2.5Z"/>
  <path d="M1620.7,0h18.6v43.5h-18.6V0Z"/>
  <path d="M1639.4,0h18.6v43.5h-18.6V0Z"/>
  <path d="M1658,0h18.6v43.5h-18.6V0Z"/>
  <path d="M1676.6,0h18.6v43.5h-18.6V0Z"/>
  <path d="M1695.3,0h18.6v43.5h-18.6V0Z"/>
  <path d="M1713.9,0h18.6v43.5h-18.6V0Z"/>
  <path d="M1743,43.5v-22.9h-11.7v-2.5h14.2v25.4h-2.5ZM1738.2,43.5v-18.1h-6.9v-2.5h9.3v20.5h-2.5Z"/>
  <path d="M1769.8,0h18.6v43.5h-18.6V0Z"/>
  <path d="M1788.4,0h18.6v43.5h-18.6V0Z"/>
  <path d="M1817.6,43.5v-22.9h-11.7v-2.5h14.2v25.4h-2.5ZM1812.7,43.5v-18.1h-6.9v-2.5h9.3v20.5h-2.5Z"/>
  <path d="M1844.3,0h18.6v43.5h-18.6V0Z"/>
  <path d="M1862.9,0h18.6v43.5h-18.6V0Z"/>
  <path d="M1881.6,0h18.6v43.5h-18.6V0Z"/>
  <path d="M1900.2,0h18.6v43.5h-18.6V0Z"/>
  <path d="M1918.8,0h18.6v43.5h-18.6V0Z"/>
  <path d="M1948,43.5v-22.9h-11.7v-2.5h14.2v25.4h-2.5ZM1943.1,43.5v-18.1h-6.9v-2.5h9.3v20.5h-2.5Z"/>
  <path d="M1974.7,0h18.6v43.5h-18.6V0Z"/>
  <path d="M1993.3,0h18.6v43.5h-18.6V0Z"/>
  <path d="M2012,0h18.6v43.5h-18.6V0Z"/>
  <path d="M2030.6,0h18.6v43.5h-18.6V0Z"/>
  <path d="M2049.2,0h18.6v43.5h-18.6V0Z"/>
  <path d="M2067.9,0h18.6v43.5h-18.6V0Z"/>
  <path d="M2086.5,0h18.6v43.5h-18.6V0Z"/>
  <path d="M2105.1,0h18.6v43.5h-18.6V0Z"/>
  <path d="M2134.3,43.5v-22.9h-11.7v-2.5h14.2v25.4h-2.5ZM2129.4,43.5v-18.1h-6.9v-2.5h9.3v20.5h-2.5Z"/>
  <path d="M5.7,37.3h2.5v22.9h11.7v2.5H5.7v-25.4ZM10.5,37.3h2.5v18.1h6.9v2.5h-9.3v-20.5Z"/>
  <path d="M17.4,55.3h21v2.5h-21v-2.5ZM17.4,60.2h21v2.5h-21v-2.5Z"/>
  <path d="M36,55.3h21v2.5h-21v-2.5ZM36,60.2h21v2.5h-21v-2.5Z"/>
  <path d="M55.9,37.3h18.6v43.5h-18.6v-43.5Z"/>
  <path d="M74.5,37.3h18.6v43.5h-18.6v-43.5Z"/>
  <path d="M101.2,57.8v22.9h-2.5v-25.4h14.2v2.5h-11.7ZM106.1,62.7v18.1h-2.5v-20.5h9.3v2.5h-6.9Z"/>
  <path d="M110.6,55.3h21v2.5h-21v-2.5ZM110.6,60.2h21v2.5h-21v-2.5Z"/>
  <path d="M129.2,55.3h21v2.5h-21v-2.5ZM129.2,60.2h21v2.5h-21v-2.5Z"/>
  <path d="M147.8,62.7v-2.5h11.7v-22.9h2.5v25.4h-14.2ZM147.8,57.8v-2.5h6.9v-18.1h2.5v20.5h-9.3Z"/>
  <path d="M167.7,37.3h18.6v43.5h-18.6v-43.5Z"/>
  <path d="M186.3,37.3h18.6v43.5h-18.6v-43.5Z"/>
  <path d="M210.6,37.3h2.5v43.5h-2.5v-43.5ZM215.4,37.3h2.5v43.5h-2.5v-43.5Z"/>
  <path d="M260.8,37.3h18.6v43.5h-18.6v-43.5Z"/>
  <path d="M279.4,37.3h18.6v43.5h-18.6v-43.5Z"/>
  <path d="M303.7,37.3h2.5v43.5h-2.5v-43.5ZM308.6,37.3h2.5v43.5h-2.5v-43.5Z"/>
  <path d="M316.7,37.3h18.6v43.5h-18.6v-43.5Z"/>
  <path d="M335.3,37.3h18.6v43.5h-18.6v-43.5Z"/>
  <path d="M362.1,57.8v22.9h-2.5v-25.4h14.2v2.5h-11.7ZM366.9,62.7v18.1h-2.5v-20.5h9.3v2.5h-6.9Z"/>
  <path d="M371.4,55.3h21v2.5h-21v-2.5ZM371.4,60.2h21v2.5h-21v-2.5Z"/>
  <path d="M390,55.3h21v2.5h-21v-2.5ZM390,60.2h21v2.5h-21v-2.5Z"/>
  <path d="M408.6,55.3h21v2.5h-21v-2.5ZM408.6,60.2h21v2.5h-21v-2.5Z"/>
  <path d="M427.3,55.3h21v2.5h-21v-2.5ZM427.3,60.2h21v2.5h-21v-2.5Z"/>
  <path d="M445.9,62.7v-2.5h11.7v-22.9h2.5v25.4h-14.2ZM445.9,57.8v-2.5h6.9v-18.1h2.5v20.5h-9.3Z"/>
  <path d="M540.3,37.3h18.6v43.5h-18.6v-43.5Z"/>
  <path d="M558.9,37.3h18.6v43.5h-18.6v-43.5Z"/>
  <path d="M585.6,57.8v22.9h-2.5v-25.4h14.2v2.5h-11.7ZM590.5,62.7v18.1h-2.5v-20.5h9.3v2.5h-6.9Z"/>
  <path d="M594.9,55.3h21v2.5h-21v-2.5ZM594.9,60.2h21v2.5h-21v-2.5Z"/>
  <path d="M613.6,55.3h21v2.5h-21v-2.5ZM613.6,60.2h21v2.5h-21v-2.5Z"/>
  <path d="M632.2,55.3h21v2.5h-21v-2.5ZM632.2,60.2h21v2.5h-21v-2.5Z"/>
  <path d="M650.8,55.3h21v2.5h-21v-2.5ZM650.8,60.2h21v2.5h-21v-2.5Z"/>
  <path d="M669.4,62.7v-2.5h11.7v-22.9h2.5v25.4h-14.2ZM669.4,57.8v-2.5h6.9v-18.1h2.5v20.5h-9.3Z"/>
  <path d="M689.3,37.3h18.6v43.5h-18.6v-43.5Z"/>
  <path d="M707.9,37.3h18.6v43.5h-18.6v-43.5Z"/>
  <path d="M734.6,57.8v22.9h-2.5v-25.4h14.2v2.5h-11.7ZM739.5,62.7v18.1h-2.5v-20.5h9.3v2.5h-6.9Z"/>
  <path d="M744,55.3h21v2.5h-21v-2.5ZM744,60.2h21v2.5h-21v-2.5Z"/>
  <path d="M762.6,55.3h21v2.5h-21v-2.5ZM762.6,60.2h21v2.5h-21v-2.5Z"/>
  <path d="M781.2,55.3h21v2.5h-21v-2.5ZM781.2,60.2h21v2.5h-21v-2.5Z"/>
  <path d="M801.1,37.3h18.6v43.5h-18.6v-43.5Z"/>
  <path d="M819.7,37.3h18.6v43.5h-18.6v-43.5Z"/>
  <path d="M848.8,80.7v-22.9h-11.7v-2.5h14.2v25.4h-2.5ZM844,80.7v-18.1h-6.9v-2.5h9.3v20.5h-2.5Z"/>
  <path d="M856.9,37.3h18.6v43.5h-18.6v-43.5Z"/>
  <path d="M875.6,37.3h18.6v43.5h-18.6v-43.5Z"/>
  <path d="M899.9,37.3h2.5v43.5h-2.5v-43.5ZM904.7,37.3h2.5v43.5h-2.5v-43.5Z"/>
  <path d="M1006,37.3h18.6v43.5h-18.6v-43.5Z"/>
  <path d="M1024.6,37.3h18.6v43.5h-18.6v-43.5Z"/>
  <path d="M1051.3,57.8v22.9h-2.5v-25.4h14.2v2.5h-11.7ZM1056.2,62.7v18.1h-2.5v-20.5h9.3v2.5h-6.9Z"/>
  <path d="M1060.7,55.3h21v2.5h-21v-2.5ZM1060.7,60.2h21v2.5h-21v-2.5Z"/>
  <path d="M1079.3,55.3h21v2.5h-21v-2.5ZM1079.3,60.2h21v2.5h-21v-2.5Z"/>
  <path d="M1097.9,55.3h21v2.5h-21v-2.5ZM1097.9,60.2h21v2.5h-21v-2.5Z"/>
  <path d="M1116.5,55.3h21v2.5h-21v-2.5ZM1116.5,60.2h21v2.5h-21v-2.5Z"/>
  <path d="M1135.2,62.7v-2.5h11.7v-22.9h2.5v25.4h-14.2ZM1135.2,57.8v-2.5h6.9v-18.1h2.5v20.5h-9.3Z"/>
  <path d="M1155,37.3h18.6v43.5h-18.6v-43.5Z"/>
  <path d="M1173.6,37.3h18.6v43.5h-18.6v-43.5Z"/>
  <path d="M1200.4,57.8v22.9h-2.5v-25.4h14.2v2.5h-11.7ZM1205.3,62.7v18.1h-2.5v-20.5h9.3v2.5h-6.9Z"/>
  <path d="M1209.7,55.3h21v2.5h-21v-2.5ZM1209.7,60.2h21v2.5h-21v-2.5Z"/>
  <path d="M1228.3,55.3h21v2.5h-21v-2.5ZM1228.3,60.2h21v2.5h-21v-2.5Z"/>
  <path d="M1248.2,37.3h18.6v43.5h-18.6v-43.5Z"/>
  <path d="M1266.8,37.3h18.6v43.5h-18.6v-43.5Z"/>
  <path d="M1295.9,80.7v-22.9h-11.7v-2.5h14.2v25.4h-2.5ZM1291.1,80.7v-18.1h-6.9v-2.5h9.3v20.5h-2.5Z"/>
  <path d="M1309.7,37.3h2.5v22.9h11.7v2.5h-14.2v-25.4ZM1314.6,37.3h2.5v18.1h6.9v2.5h-9.3v-20.5Z"/>
  <path d="M1321.5,55.3h21v2.5h-21v-2.5ZM1321.5,60.2h21v2.5h-21v-2.5Z"/>
  <path d="M1340.1,55.3h21v2.5h-21v-2.5ZM1340.1,60.2h21v2.5h-21v-2.5Z"/>
  <path d="M1359.9,37.3h18.6v43.5h-18.6v-43.5Z"/>
  <path d="M1378.6,37.3h18.6v43.5h-18.6v-43.5Z"/>
  <path d="M1405.3,57.8v22.9h-2.5v-25.4h14.2v2.5h-11.7ZM1410.2,62.7v18.1h-2.5v-20.5h9.3v2.5h-6.9Z"/>
  <path d="M1414.6,55.3h21v2.5h-21v-2.5ZM1414.6,60.2h21v2.5h-21v-2.5Z"/>
  <path d="M1433.2,55.3h21v2.5h-21v-2.5ZM1433.2,60.2h21v2.5h-21v-2.5Z"/>
  <path d="M1451.9,62.7v-2.5h11.7v-22.9h2.5v25.4h-14.2ZM1451.9,57.8v-2.5h6.9v-18.1h2.5v20.5h-9.3Z"/>
  <path d="M1471.7,37.3h18.6v43.5h-18.6v-43.5Z"/>
  <path d="M1490.3,37.3h18.6v43.5h-18.6v-43.5Z"/>
  <path d="M1517.1,57.8v22.9h-2.5v-25.4h14.2v2.5h-11.7ZM1522,62.7v18.1h-2.5v-20.5h9.3v2.5h-6.9Z"/>
  <path d="M1526.4,55.3h21v2.5h-21v-2.5ZM1526.4,60.2h21v2.5h-21v-2.5Z"/>
  <path d="M1545,55.3h21v2.5h-21v-2.5ZM1545,60.2h21v2.5h-21v-2.5Z"/>
  <path d="M1564.9,37.3h18.6v43.5h-18.6v-43.5Z"/>
  <path d="M1583.5,37.3h18.6v43.5h-18.6v-43.5Z"/>
  <path d="M1612.6,80.7v-22.9h-11.7v-2.5h14.2v25.4h-2.5ZM1607.8,80.7v-18.1h-6.9v-2.5h9.3v20.5h-2.5Z"/>
  <path d="M1620.7,37.3h18.6v43.5h-18.6v-43.5Z"/>
  <path d="M1639.4,37.3h18.6v43.5h-18.6v-43.5Z"/>
  <path d="M1666.1,57.8v22.9h-2.5v-25.4h14.2v2.5h-11.7ZM1671,62.7v18.1h-2.5v-20.5h9.3v2.5h-6.9Z"/>
  <path d="M1675.4,55.3h21v2.5h-21v-2.5ZM1675.4,60.2h21v2.5h-21v-2.5Z"/>
  <path d="M1694.1,55.3h21v2.5h-21v-2.5ZM1694.1,60.2h21v2.5h-21v-2.5Z"/>
  <path d="M1713.9,37.3h18.6v43.5h-18.6v-43.5Z"/>
  <path d="M1732.5,37.3h18.6v43.5h-18.6v-43.5Z"/>
  <path d="M1761.7,80.7v-22.9h-11.7v-2.5h14.2v25.4h-2.5ZM1756.8,80.7v-18.1h-6.9v-2.5h9.3v20.5h-2.5Z"/>
  <path d="M1769.8,37.3h18.6v43.5h-18.6v-43.5Z"/>
  <path d="M1788.4,37.3h18.6v43.5h-18.6v-43.5Z"/>
  <path d="M1812.7,37.3h2.5v43.5h-2.5v-43.5ZM1817.6,37.3h2.5v43.5h-2.5v-43.5Z"/>
  <path d="M1825.7,37.3h18.6v43.5h-18.6v-43.5Z"/>
  <path d="M1844.3,37.3h18.6v43.5h-18.6v-43.5Z"/>
  <path d="M1871,57.8v22.9h-2.5v-25.4h14.2v2.5h-11.7ZM1875.9,62.7v18.1h-2.5v-20.5h9.3v2.5h-6.9Z"/>
  <path d="M1880.3,55.3h21v2.5h-21v-2.5ZM1880.3,60.2h21v2.5h-21v-2.5Z"/>
  <path d="M1899,55.3h21v2.5h-21v-2.5ZM1899,60.2h21v2.5h-21v-2.5Z"/>
  <path d="M1918.8,37.3h18.6v43.5h-18.6v-43.5Z"/>
  <path d="M1937.4,37.3h18.6v43.5h-18.6v-43.5Z"/>
  <path d="M1966.6,80.7v-22.9h-11.7v-2.5h14.2v25.4h-2.5ZM1961.7,80.7v-18.1h-6.9v-2.5h9.3v20.5h-2.5Z"/>
  <path d="M1980.4,37.3h2.5v22.9h11.7v2.5h-14.2v-25.4ZM1985.2,37.3h2.5v18.1h6.9v2.5h-9.3v-20.5Z"/>
  <path d="M1992.1,55.3h21v2.5h-21v-2.5ZM1992.1,60.2h21v2.5h-21v-2.5Z"/>
  <path d="M2010.8,55.3h21v2.5h-21v-2.5ZM2010.8,60.2h21v2.5h-21v-2.5Z"/>
  <path d="M2030.6,37.3h18.6v43.5h-18.6v-43.5Z"/>
  <path d="M2049.2,37.3h18.6v43.5h-18.6v-43.5Z"/>
  <path d="M2076,57.8v22.9h-2.5v-25.4h14.2v2.5h-11.7ZM2080.8,62.7v18.1h-2.5v-20.5h9.3v2.5h-6.9Z"/>
  <path d="M2085.3,55.3h21v2.5h-21v-2.5ZM2085.3,60.2h21v2.5h-21v-2.5Z"/>
  <path d="M2103.9,55.3h21v2.5h-21v-2.5ZM2103.9,60.2h21v2.5h-21v-2.5Z"/>
  <path d="M2122.5,62.7v-2.5h11.7v-22.9h2.5v25.4h-14.2ZM2122.5,57.8v-2.5h6.9v-18.1h2.5v20.5h-9.3Z"/>
  <path d="M55.9,74.5h18.6v43.5h-18.6v-43.5Z"/>
  <path d="M74.5,74.5h18.6v43.5h-18.6v-43.5Z"/>
  <path d="M98.8,74.5h2.5v43.5h-2.5v-43.5ZM103.7,74.5h2.5v43.5h-2.5v-43.5Z"/>
  <path d="M167.7,74.5h18.6v43.5h-18.6v-43.5Z"/>
  <path d="M186.3,74.5h18.6v43.5h-18.6v-43.5Z"/>
  <path d="M204.9,74.5h18.6v43.5h-18.6v-43.5Z"/>
  <path d="M223.6,74.5h18.6v43.5h-18.6v-43.5Z"/>
  <path d="M242.2,74.5h18.6v43.5h-18.6v-43.5Z"/>
  <path d="M260.8,74.5h18.6v43.5h-18.6v-43.5Z"/>
  <path d="M279.4,74.5h18.6v43.5h-18.6v-43.5Z"/>
  <path d="M303.7,74.5h2.5v43.5h-2.5v-43.5ZM308.6,74.5h2.5v43.5h-2.5v-43.5Z"/>
  <path d="M316.7,74.5h18.6v43.5h-18.6v-43.5Z"/>
  <path d="M335.3,74.5h18.6v43.5h-18.6v-43.5Z"/>
  <path d="M354,74.5h18.6v43.5h-18.6v-43.5Z"/>
  <path d="M372.6,74.5h18.6v43.5h-18.6v-43.5Z"/>
  <path d="M391.2,74.5h18.6v43.5h-18.6v-43.5Z"/>
  <path d="M420.4,118v-22.9h-11.7v-2.5h14.2v25.4h-2.5ZM415.5,118v-18.1h-6.9v-2.5h9.3v20.5h-2.5Z"/>
  <path d="M540.3,74.5h18.6v43.5h-18.6v-43.5Z"/>
  <path d="M558.9,74.5h18.6v43.5h-18.6v-43.5Z"/>
  <path d="M577.5,74.5h18.6v43.5h-18.6v-43.5Z"/>
  <path d="M596.1,74.5h18.6v43.5h-18.6v-43.5Z"/>
  <path d="M614.8,74.5h18.6v43.5h-18.6v-43.5Z"/>
  <path d="M633.4,74.5h18.6v43.5h-18.6v-43.5Z"/>
  <path d="M652,74.5h18.6v43.5h-18.6v-43.5Z"/>
  <path d="M681.2,118v-22.9h-11.7v-2.5h14.2v25.4h-2.5ZM676.3,118v-18.1h-6.9v-2.5h9.3v20.5h-2.5Z"/>
  <path d="M689.3,74.5h18.6v43.5h-18.6v-43.5Z"/>
  <path d="M707.9,74.5h18.6v43.5h-18.6v-43.5Z"/>
  <path d="M732.2,74.5h2.5v43.5h-2.5v-43.5ZM737.1,74.5h2.5v43.5h-2.5v-43.5Z"/>
  <path d="M801.1,74.5h18.6v43.5h-18.6v-43.5Z"/>
  <path d="M819.7,74.5h18.6v43.5h-18.6v-43.5Z"/>
  <path d="M844,74.5h2.5v43.5h-2.5v-43.5ZM848.8,74.5h2.5v43.5h-2.5v-43.5Z"/>
  <path d="M856.9,74.5h18.6v43.5h-18.6v-43.5Z"/>
  <path d="M875.6,74.5h18.6v43.5h-18.6v-43.5Z"/>
  <path d="M899.9,74.5h2.5v43.5h-2.5v-43.5ZM904.7,74.5h2.5v43.5h-2.5v-43.5Z"/>
  <path d="M1006,74.5h18.6v43.5h-18.6v-43.5Z"/>
  <path d="M1024.6,74.5h18.6v43.5h-18.6v-43.5Z"/>
  <path d="M1043.2,74.5h18.6v43.5h-18.6v-43.5Z"/>
  <path d="M1061.9,74.5h18.6v43.5h-18.6v-43.5Z"/>
  <path d="M1080.5,74.5h18.6v43.5h-18.6v-43.5Z"/>
  <path d="M1109.7,118v-22.9h-11.7v-2.5h14.2v25.4h-2.5ZM1104.8,118v-18.1h-6.9v-2.5h9.3v20.5h-2.5Z"/>
  <path d="M1155,74.5h18.6v43.5h-18.6v-43.5Z"/>
  <path d="M1173.6,74.5h18.6v43.5h-18.6v-43.5Z"/>
  <path d="M1192.3,74.5h18.6v43.5h-18.6v-43.5Z"/>
  <path d="M1210.9,74.5h18.6v43.5h-18.6v-43.5Z"/>
  <path d="M1229.5,74.5h18.6v43.5h-18.6v-43.5Z"/>
  <path d="M1248.2,74.5h18.6v43.5h-18.6v-43.5Z"/>
  <path d="M1266.8,74.5h18.6v43.5h-18.6v-43.5Z"/>
  <path d="M1291.1,74.5h2.5v43.5h-2.5v-43.5ZM1295.9,74.5h2.5v43.5h-2.5v-43.5Z"/>
  <path d="M1359.9,74.5h18.6v43.5h-18.6v-43.5Z"/>
  <path d="M1378.6,74.5h18.6v43.5h-18.6v-43.5Z"/>
  <path d="M1402.8,74.5h2.5v43.5h-2.5v-43.5ZM1407.7,74.5h2.5v43.5h-2.5v-43.5Z"/>
  <path d="M1471.7,74.5h18.6v43.5h-18.6v-43.5Z"/>
  <path d="M1490.3,74.5h18.6v43.5h-18.6v-43.5Z"/>
  <path d="M1509,74.5h18.6v43.5h-18.6v-43.5Z"/>
  <path d="M1527.6,74.5h18.6v43.5h-18.6v-43.5Z"/>
  <path d="M1546.2,74.5h18.6v43.5h-18.6v-43.5Z"/>
  <path d="M1564.9,74.5h18.6v43.5h-18.6v-43.5Z"/>
  <path d="M1583.5,74.5h18.6v43.5h-18.6v-43.5Z"/>
  <path d="M1607.8,74.5h2.5v43.5h-2.5v-43.5ZM1612.6,74.5h2.5v43.5h-2.5v-43.5Z"/>
  <path d="M1620.7,74.5h18.6v43.5h-18.6v-43.5Z"/>
  <path d="M1639.4,74.5h18.6v43.5h-18.6v-43.5Z"/>
  <path d="M1658,74.5h18.6v43.5h-18.6v-43.5Z"/>
  <path d="M1676.6,74.5h18.6v43.5h-18.6v-43.5Z"/>
  <path d="M1695.3,74.5h18.6v43.5h-18.6v-43.5Z"/>
  <path d="M1713.9,74.5h18.6v43.5h-18.6v-43.5Z"/>
  <path d="M1740.6,95v22.9h-2.5v-25.4h14.2v2.5h-11.7ZM1745.5,99.9v18.1h-2.5v-20.5h9.3v2.5h-6.9Z"/>
  <path d="M1749.9,99.9v-2.5h11.7v-22.9h2.5v25.4h-14.2ZM1749.9,95v-2.5h6.9v-18.1h2.5v20.5h-9.3Z"/>
  <path d="M1769.8,74.5h18.6v43.5h-18.6v-43.5Z"/>
  <path d="M1788.4,74.5h18.6v43.5h-18.6v-43.5Z"/>
  <path d="M1812.7,74.5h2.5v43.5h-2.5v-43.5ZM1817.6,74.5h2.5v43.5h-2.5v-43.5Z"/>
  <path d="M1825.7,74.5h18.6v43.5h-18.6v-43.5Z"/>
  <path d="M1844.3,74.5h18.6v43.5h-18.6v-43.5Z"/>
  <path d="M1862.9,74.5h18.6v43.5h-18.6v-43.5Z"/>
  <path d="M1881.6,74.5h18.6v43.5h-18.6v-43.5Z"/>
  <path d="M1900.2,74.5h18.6v43.5h-18.6v-43.5Z"/>
  <path d="M1918.8,74.5h18.6v43.5h-18.6v-43.5Z"/>
  <path d="M1937.4,74.5h18.6v43.5h-18.6v-43.5Z"/>
  <path d="M1961.7,74.5h2.5v43.5h-2.5v-43.5ZM1966.6,74.5h2.5v43.5h-2.5v-43.5Z"/>
  <path d="M2030.6,74.5h18.6v43.5h-18.6v-43.5Z"/>
  <path d="M2049.2,74.5h18.6v43.5h-18.6v-43.5Z"/>
  <path d="M2073.5,74.5h2.5v43.5h-2.5v-43.5ZM2078.4,74.5h2.5v43.5h-2.5v-43.5Z"/>
  <path d="M55.9,111.8h18.6v43.5h-18.6v-43.5Z"/>
  <path d="M74.5,111.8h18.6v43.5h-18.6v-43.5Z"/>
  <path d="M98.8,111.8h2.5v43.5h-2.5v-43.5ZM103.7,111.8h2.5v43.5h-2.5v-43.5Z"/>
  <path d="M167.7,111.8h18.6v43.5h-18.6v-43.5Z"/>
  <path d="M186.3,111.8h18.6v43.5h-18.6v-43.5Z"/>
  <path d="M213,132.3v22.9h-2.5v-25.4h14.2v2.5h-11.7ZM217.9,137.2v18.1h-2.5v-20.5h9.3v2.5h-6.9Z"/>
  <path d="M222.3,129.8h21v2.5h-21v-2.5ZM222.3,134.7h21v2.5h-21v-2.5Z"/>
  <path d="M241,129.8h21v2.5h-21v-2.5ZM241,134.7h21v2.5h-21v-2.5Z"/>
  <path d="M260.8,111.8h18.6v43.5h-18.6v-43.5Z"/>
  <path d="M279.4,111.8h18.6v43.5h-18.6v-43.5Z"/>
  <path d="M303.7,111.8h2.5v43.5h-2.5v-43.5ZM308.6,111.8h2.5v43.5h-2.5v-43.5Z"/>
  <path d="M316.7,111.8h18.6v43.5h-18.6v-43.5Z"/>
  <path d="M335.3,111.8h18.6v43.5h-18.6v-43.5Z"/>
  <path d="M362.1,132.3v22.9h-2.5v-25.4h14.2v2.5h-11.7ZM366.9,137.2v18.1h-2.5v-20.5h9.3v2.5h-6.9Z"/>
  <path d="M371.4,129.8h21v2.5h-21v-2.5ZM371.4,134.7h21v2.5h-21v-2.5Z"/>
  <path d="M390,129.8h21v2.5h-21v-2.5ZM390,134.7h21v2.5h-21v-2.5Z"/>
  <path d="M408.6,137.2v-2.5h11.7v-22.9h2.5v25.4h-14.2ZM408.6,132.3v-2.5h6.9v-18.1h2.5v20.5h-9.3Z"/>
  <path d="M545.9,111.8h2.5v22.9h11.7v2.5h-14.2v-25.4ZM550.8,111.8h2.5v18.1h6.9v2.5h-9.3v-20.5Z"/>
  <path d="M557.7,129.8h21v2.5h-21v-2.5ZM557.7,134.7h21v2.5h-21v-2.5Z"/>
  <path d="M576.3,129.8h21v2.5h-21v-2.5ZM576.3,134.7h21v2.5h-21v-2.5Z"/>
  <path d="M594.9,129.8h21v2.5h-21v-2.5ZM594.9,134.7h21v2.5h-21v-2.5Z"/>
  <path d="M613.6,129.8h21v2.5h-21v-2.5ZM613.6,134.7h21v2.5h-21v-2.5Z"/>
  <path d="M633.4,111.8h18.6v43.5h-18.6v-43.5Z"/>
  <path d="M652,111.8h18.6v43.5h-18.6v-43.5Z"/>
  <path d="M676.3,111.8h2.5v43.5h-2.5v-43.5ZM681.2,111.8h2.5v43.5h-2.5v-43.5Z"/>
  <path d="M689.3,111.8h18.6v43.5h-18.6v-43.5Z"/>
  <path d="M707.9,111.8h18.6v43.5h-18.6v-43.5Z"/>
  <path d="M732.2,111.8h2.5v43.5h-2.5v-43.5ZM737.1,111.8h2.5v43.5h-2.5v-43.5Z"/>
  <path d="M801.1,111.8h18.6v43.5h-18.6v-43.5Z"/>
  <path d="M819.7,111.8h18.6v43.5h-18.6v-43.5Z"/>
  <path d="M844,111.8h2.5v43.5h-2.5v-43.5ZM848.8,111.8h2.5v43.5h-2.5v-43.5Z"/>
  <path d="M856.9,111.8h18.6v43.5h-18.6v-43.5Z"/>
  <path d="M875.6,111.8h18.6v43.5h-18.6v-43.5Z"/>
  <path d="M899.9,111.8h2.5v43.5h-2.5v-43.5ZM904.7,111.8h2.5v43.5h-2.5v-43.5Z"/>
  <path d="M1006,111.8h18.6v43.5h-18.6v-43.5Z"/>
  <path d="M1024.6,111.8h18.6v43.5h-18.6v-43.5Z"/>
  <path d="M1051.3,132.3v22.9h-2.5v-25.4h14.2v2.5h-11.7ZM1056.2,137.2v18.1h-2.5v-20.5h9.3v2.5h-6.9Z"/>
  <path d="M1060.7,129.8h21v2.5h-21v-2.5ZM1060.7,134.7h21v2.5h-21v-2.5Z"/>
  <path d="M1079.3,129.8h21v2.5h-21v-2.5ZM1079.3,134.7h21v2.5h-21v-2.5Z"/>
  <path d="M1097.9,137.2v-2.5h11.7v-22.9h2.5v25.4h-14.2ZM1097.9,132.3v-2.5h6.9v-18.1h2.5v20.5h-9.3Z"/>
  <path d="M1155,111.8h18.6v43.5h-18.6v-43.5Z"/>
  <path d="M1173.6,111.8h18.6v43.5h-18.6v-43.5Z"/>
  <path d="M1200.4,132.3v22.9h-2.5v-25.4h14.2v2.5h-11.7ZM1205.3,137.2v18.1h-2.5v-20.5h9.3v2.5h-6.9Z"/>
  <path d="M1209.7,129.8h21v2.5h-21v-2.5ZM1209.7,134.7h21v2.5h-21v-2.5Z"/>
  <path d="M1228.3,129.8h21v2.5h-21v-2.5ZM1228.3,134.7h21v2.5h-21v-2.5Z"/>
  <path d="M1248.2,111.8h18.6v43.5h-18.6v-43.5Z"/>
  <path d="M1266.8,111.8h18.6v43.5h-18.6v-43.5Z"/>
  <path d="M1291.1,111.8h2.5v43.5h-2.5v-43.5ZM1295.9,111.8h2.5v43.5h-2.5v-43.5Z"/>
  <path d="M1359.9,111.8h18.6v43.5h-18.6v-43.5Z"/>
  <path d="M1378.6,111.8h18.6v43.5h-18.6v-43.5Z"/>
  <path d="M1402.8,111.8h2.5v43.5h-2.5v-43.5ZM1407.7,111.8h2.5v43.5h-2.5v-43.5Z"/>
  <path d="M1471.7,111.8h18.6v43.5h-18.6v-43.5Z"/>
  <path d="M1490.3,111.8h18.6v43.5h-18.6v-43.5Z"/>
  <path d="M1517.1,132.3v22.9h-2.5v-25.4h14.2v2.5h-11.7ZM1522,137.2v18.1h-2.5v-20.5h9.3v2.5h-6.9Z"/>
  <path d="M1526.4,129.8h21v2.5h-21v-2.5ZM1526.4,134.7h21v2.5h-21v-2.5Z"/>
  <path d="M1545,129.8h21v2.5h-21v-2.5ZM1545,134.7h21v2.5h-21v-2.5Z"/>
  <path d="M1564.9,111.8h18.6v43.5h-18.6v-43.5Z"/>
  <path d="M1583.5,111.8h18.6v43.5h-18.6v-43.5Z"/>
  <path d="M1607.8,111.8h2.5v43.5h-2.5v-43.5ZM1612.6,111.8h2.5v43.5h-2.5v-43.5Z"/>
  <path d="M1620.7,111.8h18.6v43.5h-18.6v-43.5Z"/>
  <path d="M1639.4,111.8h18.6v43.5h-18.6v-43.5Z"/>
  <path d="M1666.1,132.3v22.9h-2.5v-25.4h14.2v2.5h-11.7ZM1671,137.2v18.1h-2.5v-20.5h9.3v2.5h-6.9Z"/>
  <path d="M1675.4,129.8h21v2.5h-21v-2.5ZM1675.4,134.7h21v2.5h-21v-2.5Z"/>
  <path d="M1694.1,129.8h21v2.5h-21v-2.5ZM1694.1,134.7h21v2.5h-21v-2.5Z"/>
  <path d="M1713.9,111.8h18.6v43.5h-18.6v-43.5Z"/>
  <path d="M1732.5,111.8h18.6v43.5h-18.6v-43.5Z"/>
  <path d="M1761.7,155.2v-22.9h-11.7v-2.5h14.2v25.4h-2.5ZM1756.8,155.2v-18.1h-6.9v-2.5h9.3v20.5h-2.5Z"/>
  <path d="M1769.8,111.8h18.6v43.5h-18.6v-43.5Z"/>
  <path d="M1788.4,111.8h18.6v43.5h-18.6v-43.5Z"/>
  <path d="M1812.7,111.8h2.5v43.5h-2.5v-43.5ZM1817.6,111.8h2.5v43.5h-2.5v-43.5Z"/>
  <path d="M1825.7,111.8h18.6v43.5h-18.6v-43.5Z"/>
  <path d="M1844.3,111.8h18.6v43.5h-18.6v-43.5Z"/>
  <path d="M1871,132.3v22.9h-2.5v-25.4h14.2v2.5h-11.7ZM1875.9,137.2v18.1h-2.5v-20.5h9.3v2.5h-6.9Z"/>
  <path d="M1880.3,129.8h21v2.5h-21v-2.5ZM1880.3,134.7h21v2.5h-21v-2.5Z"/>
  <path d="M1899,129.8h21v2.5h-21v-2.5ZM1899,134.7h21v2.5h-21v-2.5Z"/>
  <path d="M1918.8,111.8h18.6v43.5h-18.6v-43.5Z"/>
  <path d="M1937.4,111.8h18.6v43.5h-18.6v-43.5Z"/>
  <path d="M1961.7,111.8h2.5v43.5h-2.5v-43.5ZM1966.6,111.8h2.5v43.5h-2.5v-43.5Z"/>
  <path d="M2030.6,111.8h18.6v43.5h-18.6v-43.5Z"/>
  <path d="M2049.2,111.8h18.6v43.5h-18.6v-43.5Z"/>
  <path d="M2073.5,111.8h2.5v43.5h-2.5v-43.5ZM2078.4,111.8h2.5v43.5h-2.5v-43.5Z"/>
  <path d="M55.9,149h18.6v43.5h-18.6v-43.5Z"/>
  <path d="M74.5,149h18.6v43.5h-18.6v-43.5Z"/>
  <path d="M98.8,149h2.5v43.5h-2.5v-43.5ZM103.7,149h2.5v43.5h-2.5v-43.5Z"/>
  <path d="M167.7,149h18.6v43.5h-18.6v-43.5Z"/>
  <path d="M186.3,149h18.6v43.5h-18.6v-43.5Z"/>
  <path d="M210.6,149h2.5v43.5h-2.5v-43.5ZM215.4,149h2.5v43.5h-2.5v-43.5Z"/>
  <path d="M260.8,149h18.6v43.5h-18.6v-43.5Z"/>
  <path d="M279.4,149h18.6v43.5h-18.6v-43.5Z"/>
  <path d="M303.7,149h2.5v43.5h-2.5v-43.5ZM308.6,149h2.5v43.5h-2.5v-43.5Z"/>
  <path d="M316.7,149h18.6v43.5h-18.6v-43.5Z"/>
  <path d="M335.3,149h18.6v43.5h-18.6v-43.5Z"/>
  <path d="M354,149h18.6v43.5h-18.6v-43.5Z"/>
  <path d="M372.6,149h18.6v43.5h-18.6v-43.5Z"/>
  <path d="M391.2,149h18.6v43.5h-18.6v-43.5Z"/>
  <path d="M409.8,149h18.6v43.5h-18.6v-43.5Z"/>
  <path d="M428.5,149h18.6v43.5h-18.6v-43.5Z"/>
  <path d="M457.6,192.5v-22.9h-11.7v-2.5h14.2v25.4h-2.5ZM452.8,192.5v-18.1h-6.9v-2.5h9.3v20.5h-2.5Z"/>
  <path d="M540.3,149h18.6v43.5h-18.6v-43.5Z"/>
  <path d="M558.9,149h18.6v43.5h-18.6v-43.5Z"/>
  <path d="M577.5,149h18.6v43.5h-18.6v-43.5Z"/>
  <path d="M596.1,149h18.6v43.5h-18.6v-43.5Z"/>
  <path d="M614.8,149h18.6v43.5h-18.6v-43.5Z"/>
  <path d="M633.4,149h18.6v43.5h-18.6v-43.5Z"/>
  <path d="M652,149h18.6v43.5h-18.6v-43.5Z"/>
  <path d="M676.3,149h2.5v43.5h-2.5v-43.5ZM681.2,149h2.5v43.5h-2.5v-43.5Z"/>
  <path d="M694.9,149h2.5v22.9h11.7v2.5h-14.2v-25.4ZM699.8,149h2.5v18.1h6.9v2.5h-9.3v-20.5Z"/>
  <path d="M707.9,149h18.6v43.5h-18.6v-43.5Z"/>
  <path d="M726.5,149h18.6v43.5h-18.6v-43.5Z"/>
  <path d="M745.2,149h18.6v43.5h-18.6v-43.5Z"/>
  <path d="M763.8,149h18.6v43.5h-18.6v-43.5Z"/>
  <path d="M782.4,149h18.6v43.5h-18.6v-43.5Z"/>
  <path d="M801.1,149h18.6v43.5h-18.6v-43.5Z"/>
  <path d="M827.8,169.6v22.9h-2.5v-25.4h14.2v2.5h-11.7ZM832.7,174.4v18.1h-2.5v-20.5h9.3v2.5h-6.9Z"/>
  <path d="M837.1,174.4v-2.5h11.7v-22.9h2.5v25.4h-14.2ZM837.1,169.6v-2.5h6.9v-18.1h2.5v20.5h-9.3Z"/>
  <path d="M856.9,149h18.6v43.5h-18.6v-43.5Z"/>
  <path d="M875.6,149h18.6v43.5h-18.6v-43.5Z"/>
  <path d="M894.2,149h18.6v43.5h-18.6v-43.5Z"/>
  <path d="M912.8,149h18.6v43.5h-18.6v-43.5Z"/>
  <path d="M931.5,149h18.6v43.5h-18.6v-43.5Z"/>
  <path d="M950.1,149h18.6v43.5h-18.6v-43.5Z"/>
  <path d="M968.7,149h18.6v43.5h-18.6v-43.5Z"/>
  <path d="M997.9,192.5v-22.9h-11.7v-2.5h14.2v25.4h-2.5ZM993,192.5v-18.1h-6.9v-2.5h9.3v20.5h-2.5Z"/>
  <path d="M1006,149h18.6v43.5h-18.6v-43.5Z"/>
  <path d="M1024.6,149h18.6v43.5h-18.6v-43.5Z"/>
  <path d="M1048.9,149h2.5v43.5h-2.5v-43.5ZM1053.8,149h2.5v43.5h-2.5v-43.5Z"/>
  <path d="M1155,149h18.6v43.5h-18.6v-43.5Z"/>
  <path d="M1173.6,149h18.6v43.5h-18.6v-43.5Z"/>
  <path d="M1197.9,149h2.5v43.5h-2.5v-43.5ZM1202.8,149h2.5v43.5h-2.5v-43.5Z"/>
  <path d="M1248.2,149h18.6v43.5h-18.6v-43.5Z"/>
  <path d="M1266.8,149h18.6v43.5h-18.6v-43.5Z"/>
  <path d="M1291.1,149h2.5v43.5h-2.5v-43.5ZM1295.9,149h2.5v43.5h-2.5v-43.5Z"/>
  <path d="M1359.9,149h18.6v43.5h-18.6v-43.5Z"/>
  <path d="M1378.6,149h18.6v43.5h-18.6v-43.5Z"/>
  <path d="M1402.8,149h2.5v43.5h-2.5v-43.5ZM1407.7,149h2.5v43.5h-2.5v-43.5Z"/>
  <path d="M1471.7,149h18.6v43.5h-18.6v-43.5Z"/>
  <path d="M1490.3,149h18.6v43.5h-18.6v-43.5Z"/>
  <path d="M1514.6,149h2.5v43.5h-2.5v-43.5ZM1519.5,149h2.5v43.5h-2.5v-43.5Z"/>
  <path d="M1564.9,149h18.6v43.5h-18.6v-43.5Z"/>
  <path d="M1583.5,149h18.6v43.5h-18.6v-43.5Z"/>
  <path d="M1607.8,149h2.5v43.5h-2.5v-43.5ZM1612.6,149h2.5v43.5h-2.5v-43.5Z"/>
  <path d="M1620.7,149h18.6v43.5h-18.6v-43.5Z"/>
  <path d="M1639.4,149h18.6v43.5h-18.6v-43.5Z"/>
  <path d="M1663.7,149h2.5v43.5h-2.5v-43.5ZM1668.5,149h2.5v43.5h-2.5v-43.5Z"/>
  <path d="M1713.9,149h18.6v43.5h-18.6v-43.5Z"/>
  <path d="M1732.5,149h18.6v43.5h-18.6v-43.5Z"/>
  <path d="M1756.8,149h2.5v43.5h-2.5v-43.5ZM1761.7,149h2.5v43.5h-2.5v-43.5Z"/>
  <path d="M1769.8,149h18.6v43.5h-18.6v-43.5Z"/>
  <path d="M1788.4,149h18.6v43.5h-18.6v-43.5Z"/>
  <path d="M1812.7,149h2.5v43.5h-2.5v-43.5ZM1817.6,149h2.5v43.5h-2.5v-43.5Z"/>
  <path d="M1825.7,149h18.6v43.5h-18.6v-43.5Z"/>
  <path d="M1844.3,149h18.6v43.5h-18.6v-43.5Z"/>
  <path d="M1868.6,149h2.5v43.5h-2.5v-43.5ZM1873.5,149h2.5v43.5h-2.5v-43.5Z"/>
  <path d="M1918.8,149h18.6v43.5h-18.6v-43.5Z"/>
  <path d="M1937.4,149h18.6v43.5h-18.6v-43.5Z"/>
  <path d="M1961.7,149h2.5v43.5h-2.5v-43.5ZM1966.6,149h2.5v43.5h-2.5v-43.5Z"/>
  <path d="M2030.6,149h18.6v43.5h-18.6v-43.5Z"/>
  <path d="M2049.2,149h18.6v43.5h-18.6v-43.5Z"/>
  <path d="M2073.5,149h2.5v43.5h-2.5v-43.5ZM2078.4,149h2.5v43.5h-2.5v-43.5Z"/>
  <path d="M61.5,186.3h2.5v22.9h11.7v2.5h-14.2v-25.4ZM66.4,186.3h2.5v18.1h6.9v2.5h-9.3v-20.5Z"/>
  <path d="M73.3,204.4h21v2.5h-21v-2.5ZM73.3,209.2h21v2.5h-21v-2.5Z"/>
  <path d="M91.9,211.7v-2.5h11.7v-22.9h2.5v25.4h-14.2ZM91.9,206.8v-2.5h6.9v-18.1h2.5v20.5h-9.3Z"/>
  <path d="M173.3,186.3h2.5v22.9h11.7v2.5h-14.2v-25.4ZM178.2,186.3h2.5v18.1h6.9v2.5h-9.3v-20.5Z"/>
  <path d="M185.1,204.4h21v2.5h-21v-2.5ZM185.1,209.2h21v2.5h-21v-2.5Z"/>
  <path d="M203.7,211.7v-2.5h11.7v-22.9h2.5v25.4h-14.2ZM203.7,206.8v-2.5h6.9v-18.1h2.5v20.5h-9.3Z"/>
  <path d="M266.5,186.3h2.5v22.9h11.7v2.5h-14.2v-25.4ZM271.3,186.3h2.5v18.1h6.9v2.5h-9.3v-20.5Z"/>
  <path d="M278.2,204.4h21v2.5h-21v-2.5ZM278.2,209.2h21v2.5h-21v-2.5Z"/>
  <path d="M296.9,211.7v-2.5h11.7v-22.9h2.5v25.4h-14.2ZM296.9,206.8v-2.5h6.9v-18.1h2.5v20.5h-9.3Z"/>
  <path d="M322.3,186.3h2.5v22.9h11.7v2.5h-14.2v-25.4ZM327.2,186.3h2.5v18.1h6.9v2.5h-9.3v-20.5Z"/>
  <path d="M334.1,204.4h21v2.5h-21v-2.5ZM334.1,209.2h21v2.5h-21v-2.5Z"/>
  <path d="M352.7,204.4h21v2.5h-21v-2.5ZM352.7,209.2h21v2.5h-21v-2.5Z"/>
  <path d="M371.4,204.4h21v2.5h-21v-2.5ZM371.4,209.2h21v2.5h-21v-2.5Z"/>
  <path d="M390,204.4h21v2.5h-21v-2.5ZM390,209.2h21v2.5h-21v-2.5Z"/>
  <path d="M408.6,204.4h21v2.5h-21v-2.5ZM408.6,209.2h21v2.5h-21v-2.5Z"/>
  <path d="M427.3,204.4h21v2.5h-21v-2.5ZM427.3,209.2h21v2.5h-21v-2.5Z"/>
  <path d="M445.9,211.7v-2.5h11.7v-22.9h2.5v25.4h-14.2ZM445.9,206.8v-2.5h6.9v-18.1h2.5v20.5h-9.3Z"/>
  <path d="M545.9,186.3h2.5v22.9h11.7v2.5h-14.2v-25.4ZM550.8,186.3h2.5v18.1h6.9v2.5h-9.3v-20.5Z"/>
  <path d="M557.7,204.4h21v2.5h-21v-2.5ZM557.7,209.2h21v2.5h-21v-2.5Z"/>
  <path d="M576.3,204.4h21v2.5h-21v-2.5ZM576.3,209.2h21v2.5h-21v-2.5Z"/>
  <path d="M594.9,204.4h21v2.5h-21v-2.5ZM594.9,209.2h21v2.5h-21v-2.5Z"/>
  <path d="M613.6,204.4h21v2.5h-21v-2.5ZM613.6,209.2h21v2.5h-21v-2.5Z"/>
  <path d="M632.2,204.4h21v2.5h-21v-2.5ZM632.2,209.2h21v2.5h-21v-2.5Z"/>
  <path d="M650.8,204.4h21v2.5h-21v-2.5ZM650.8,209.2h21v2.5h-21v-2.5Z"/>
  <path d="M669.4,211.7v-2.5h11.7v-22.9h2.5v25.4h-14.2ZM669.4,206.8v-2.5h6.9v-18.1h2.5v20.5h-9.3Z"/>
  <path d="M713.6,186.3h2.5v22.9h11.7v2.5h-14.2v-25.4ZM718.4,186.3h2.5v18.1h6.9v2.5h-9.3v-20.5Z"/>
  <path d="M725.3,204.4h21v2.5h-21v-2.5ZM725.3,209.2h21v2.5h-21v-2.5Z"/>
  <path d="M744,204.4h21v2.5h-21v-2.5ZM744,209.2h21v2.5h-21v-2.5Z"/>
  <path d="M762.6,204.4h21v2.5h-21v-2.5ZM762.6,209.2h21v2.5h-21v-2.5Z"/>
  <path d="M781.2,204.4h21v2.5h-21v-2.5ZM781.2,209.2h21v2.5h-21v-2.5Z"/>
  <path d="M799.8,204.4h21v2.5h-21v-2.5ZM799.8,209.2h21v2.5h-21v-2.5Z"/>
  <path d="M818.5,211.7v-2.5h11.7v-22.9h2.5v25.4h-14.2ZM818.5,206.8v-2.5h6.9v-18.1h2.5v20.5h-9.3Z"/>
  <path d="M862.6,186.3h2.5v22.9h11.7v2.5h-14.2v-25.4ZM867.5,186.3h2.5v18.1h6.9v2.5h-9.3v-20.5Z"/>
  <path d="M874.4,204.4h21v2.5h-21v-2.5ZM874.4,209.2h21v2.5h-21v-2.5Z"/>
  <path d="M893,204.4h21v2.5h-21v-2.5ZM893,209.2h21v2.5h-21v-2.5Z"/>
  <path d="M911.6,204.4h21v2.5h-21v-2.5ZM911.6,209.2h21v2.5h-21v-2.5Z"/>
  <path d="M930.3,204.4h21v2.5h-21v-2.5ZM930.3,209.2h21v2.5h-21v-2.5Z"/>
  <path d="M948.9,204.4h21v2.5h-21v-2.5ZM948.9,209.2h21v2.5h-21v-2.5Z"/>
  <path d="M967.5,204.4h21v2.5h-21v-2.5ZM967.5,209.2h21v2.5h-21v-2.5Z"/>
  <path d="M986.1,211.7v-2.5h11.7v-22.9h2.5v25.4h-14.2ZM986.1,206.8v-2.5h6.9v-18.1h2.5v20.5h-9.3Z"/>
  <path d="M1011.6,186.3h2.5v22.9h11.7v2.5h-14.2v-25.4ZM1016.5,186.3h2.5v18.1h6.9v2.5h-9.3v-20.5Z"/>
  <path d="M1023.4,204.4h21v2.5h-21v-2.5ZM1023.4,209.2h21v2.5h-21v-2.5Z"/>
  <path d="M1042,211.7v-2.5h11.7v-22.9h2.5v25.4h-14.2ZM1042,206.8v-2.5h6.9v-18.1h2.5v20.5h-9.3Z"/>
  <path d="M1160.7,186.3h2.5v22.9h11.7v2.5h-14.2v-25.4ZM1165.5,186.3h2.5v18.1h6.9v2.5h-9.3v-20.5Z"/>
  <path d="M1172.4,204.4h21v2.5h-21v-2.5ZM1172.4,209.2h21v2.5h-21v-2.5Z"/>
  <path d="M1191.1,211.7v-2.5h11.7v-22.9h2.5v25.4h-14.2ZM1191.1,206.8v-2.5h6.9v-18.1h2.5v20.5h-9.3Z"/>
  <path d="M1253.8,186.3h2.5v22.9h11.7v2.5h-14.2v-25.4ZM1258.7,186.3h2.5v18.1h6.9v2.5h-9.3v-20.5Z"/>
  <path d="M1265.6,204.4h21v2.5h-21v-2.5ZM1265.6,209.2h21v2.5h-21v-2.5Z"/>
  <path d="M1284.2,211.7v-2.5h11.7v-22.9h2.5v25.4h-14.2ZM1284.2,206.8v-2.5h6.9v-18.1h2.5v20.5h-9.3Z"/>
  <path d="M1365.6,186.3h2.5v22.9h11.7v2.5h-14.2v-25.4ZM1370.5,186.3h2.5v18.1h6.9v2.5h-9.3v-20.5Z"/>
  <path d="M1377.4,204.4h21v2.5h-21v-2.5ZM1377.4,209.2h21v2.5h-21v-2.5Z"/>
  <path d="M1396,211.7v-2.5h11.7v-22.9h2.5v25.4h-14.2ZM1396,206.8v-2.5h6.9v-18.1h2.5v20.5h-9.3Z"/>
  <path d="M1477.4,186.3h2.5v22.9h11.7v2.5h-14.2v-25.4ZM1482.2,186.3h2.5v18.1h6.9v2.5h-9.3v-20.5Z"/>
  <path d="M1489.1,204.4h21v2.5h-21v-2.5ZM1489.1,209.2h21v2.5h-21v-2.5Z"/>
  <path d="M1507.8,211.7v-2.5h11.7v-22.9h2.5v25.4h-14.2ZM1507.8,206.8v-2.5h6.9v-18.1h2.5v20.5h-9.3Z"/>
  <path d="M1570.5,186.3h2.5v22.9h11.7v2.5h-14.2v-25.4ZM1575.4,186.3h2.5v18.1h6.9v2.5h-9.3v-20.5Z"/>
  <path d="M1582.3,204.4h21v2.5h-21v-2.5ZM1582.3,209.2h21v2.5h-21v-2.5Z"/>
  <path d="M1600.9,211.7v-2.5h11.7v-22.9h2.5v25.4h-14.2ZM1600.9,206.8v-2.5h6.9v-18.1h2.5v20.5h-9.3Z"/>
  <path d="M1626.4,186.3h2.5v22.9h11.7v2.5h-14.2v-25.4ZM1631.3,186.3h2.5v18.1h6.9v2.5h-9.3v-20.5Z"/>
  <path d="M1638.2,204.4h21v2.5h-21v-2.5ZM1638.2,209.2h21v2.5h-21v-2.5Z"/>
  <path d="M1656.8,211.7v-2.5h11.7v-22.9h2.5v25.4h-14.2ZM1656.8,206.8v-2.5h6.9v-18.1h2.5v20.5h-9.3Z"/>
  <path d="M1719.5,186.3h2.5v22.9h11.7v2.5h-14.2v-25.4ZM1724.4,186.3h2.5v18.1h6.9v2.5h-9.3v-20.5Z"/>
  <path d="M1731.3,204.4h21v2.5h-21v-2.5ZM1731.3,209.2h21v2.5h-21v-2.5Z"/>
  <path d="M1749.9,211.7v-2.5h11.7v-22.9h2.5v25.4h-14.2ZM1749.9,206.8v-2.5h6.9v-18.1h2.5v20.5h-9.3Z"/>
  <path d="M1775.4,186.3h2.5v22.9h11.7v2.5h-14.2v-25.4ZM1780.3,186.3h2.5v18.1h6.9v2.5h-9.3v-20.5Z"/>
  <path d="M1787.2,204.4h21v2.5h-21v-2.5ZM1787.2,209.2h21v2.5h-21v-2.5Z"/>
  <path d="M1805.8,211.7v-2.5h11.7v-22.9h2.5v25.4h-14.2ZM1805.8,206.8v-2.5h6.9v-18.1h2.5v20.5h-9.3Z"/>
  <path d="M1831.3,186.3h2.5v22.9h11.7v2.5h-14.2v-25.4ZM1836.2,186.3h2.5v18.1h6.9v2.5h-9.3v-20.5Z"/>
  <path d="M1843.1,204.4h21v2.5h-21v-2.5ZM1843.1,209.2h21v2.5h-21v-2.5Z"/>
  <path d="M1861.7,211.7v-2.5h11.7v-22.9h2.5v25.4h-14.2ZM1861.7,206.8v-2.5h6.9v-18.1h2.5v20.5h-9.3Z"/>
  <path d="M1924.5,186.3h2.5v22.9h11.7v2.5h-14.2v-25.4ZM1929.3,186.3h2.5v18.1h6.9v2.5h-9.3v-20.5Z"/>
  <path d="M1936.2,204.4h21v2.5h-21v-2.5ZM1936.2,209.2h21v2.5h-21v-2.5Z"/>
  <path d="M1954.9,211.7v-2.5h11.7v-22.9h2.5v25.4h-14.2ZM1954.9,206.8v-2.5h6.9v-18.1h2.5v20.5h-9.3Z"/>
  <path d="M2036.2,186.3h2.5v22.9h11.7v2.5h-14.2v-25.4ZM2041.1,186.3h2.5v18.1h6.9v2.5h-9.3v-20.5Z"/>
  <path d="M2048,204.4h21v2.5h-21v-2.5ZM2048,209.2h21v2.5h-21v-2.5Z"/>
  <path d="M2066.6,211.7v-2.5h11.7v-22.9h2.5v25.4h-14.2ZM2066.6,206.8v-2.5h6.9v-18.1h2.5v20.5h-9.3Z"/>
</svg>